<?xml version="1.0" encoding="UTF-8"?>
<svg id="uuid-df990494-2fa6-4d8b-9cc6-04ed158cab7f" data-name="Layer 1" xmlns="http://www.w3.org/2000/svg" viewBox="0 0 1000 1000">
  <defs>
    <style>
      .uuid-4d37fded-c862-4d1c-a039-01027b87ddce {
        fill: #555fb4;
      }

      .uuid-4d37fded-c862-4d1c-a039-01027b87ddce, .uuid-d8956e8f-7417-4617-8647-7f66a69be5c4, .uuid-fcf136d6-1b92-4431-aca2-36bc6ef2b90a, .uuid-03cf2ac9-7c40-4cef-af4f-f2a1a9f89b5d, .uuid-4764c7ff-d0af-4d2e-bacf-360a223e5258, .uuid-8276d096-f04c-4db2-b102-9d6d67d1f898 {
        stroke-width: 0px;
      }

      .uuid-d8956e8f-7417-4617-8647-7f66a69be5c4 {
        fill: #71b5c8;
      }

      .uuid-fcf136d6-1b92-4431-aca2-36bc6ef2b90a {
        fill: #fff;
      }

      .uuid-03cf2ac9-7c40-4cef-af4f-f2a1a9f89b5d {
        fill: #4293b7;
      }

      .uuid-4764c7ff-d0af-4d2e-bacf-360a223e5258 {
        fill: #8882cb;
      }

      .uuid-8276d096-f04c-4db2-b102-9d6d67d1f898 {
        fill: #635cb7;
      }
    </style>
  </defs>
  <rect class="uuid-fcf136d6-1b92-4431-aca2-36bc6ef2b90a" x="0" width="1000" height="1000"/>
  <path class="uuid-d8956e8f-7417-4617-8647-7f66a69be5c4" d="m214.54,416.5c-1.28-3.48-3.54-3.8-4.97-1.13-1.43,2.67-3.77,4.53-6.71,4.12-2.94-.4,1.43-6.39,4.07-12.45s-3.73-8.08-13.68-8.45c-9.95-.36-17.41.12-27.47,1.94s-16.5,6.79-19.22,10.19c-2.71,3.4-8.25,10.43-8.25,10.43-4.18,5.46-2.15,7.96-.11,9.82,2.03,1.86,10.4,6.06,15.07,7.36,4.67,1.29,11.91,7.03,14.77,8.41,2.86,1.37,7.01,2.83,7.46,1.94.45-.89-4.75-3.48-7.08-6.63s14.24-.73,19.89.08c5.65.81,12.58-.08,16.58-2.43,3.99-2.34,3.24-6.39,1.21-11.48-2.03-5.09,3.99.08,6.41.49s3.32-8.73,2.03-12.21Zm-69.97,5.58c-.98,0-1.77-.85-1.77-1.9s.79-1.9,1.77-1.9,1.77.85,1.77,1.9-.79,1.9-1.77,1.9Z"/>
  <path class="uuid-4764c7ff-d0af-4d2e-bacf-360a223e5258" d="m264.26,395.98c.4-5.47,4.66-12.79,0-9.84-4.66,2.94-6.46,7.31-9.43,7.21-2.97-.1-5.09-3.45-4.13-8.32.95-4.87,1.69-10.76,1.59-15.53-.1-4.3-1.06-7.81-5.4-9.54-4.71-1.87-10.45-1.12-16.53,5.38-6.36,6.8-16.31,9.64-18.43,11.16-2.12,1.52-2.75,6.7-4.13,8.32-1.38,1.62-4.08,1.57-5.09,4.77-.56,1.79,1.45,4.76,5.19,5.99,7.57,2.49,10.17,6.9,14.94,11.27,6.03,5.52,11.12,8.73,16.42,10.35,5.3,1.62,8.26.41,10.49-2.84,2.22-3.25.95-11.37,1.8-14.11.85-2.74,3.89-1.61,6.14,1.7,3.89,5.71,6.14,5.99,7.47,5.33,1.07-.53-1.48-3.27-.9-11.29Zm-50.36-8.33c-.98,0-1.77-.85-1.77-1.9s.79-1.9,1.77-1.9,1.77.85,1.77,1.9-.79,1.9-1.77,1.9Z"/>
  <path class="uuid-03cf2ac9-7c40-4cef-af4f-f2a1a9f89b5d" d="m246.56,486.99c0-2.83.68-4.69.53-7.52s-2.41-3.07-4.14-1.54c-1.73,1.54-3.39,3.48-5.95,2.91-2.56-.57-5.65-1.7-3.99-3.15,1.66-1.46,5.43-2.02,6.63-4.2,1.21-2.18,3.77-5.9-1.13-9.54-4.9-3.64-15.15-8.49-18.69-9.54-3.54-1.05-13.04-1.29-17.11.73,0,0-4.3,2.59-5.58,5.9-1.28,3.31-1.96,5.9-4.45,7.19-2.49,1.29-5.58,4.61-7.54,8.33-1.96,3.72-2.19,6.63-2.71,8.24-.53,1.62-1.66,2.51.15,5.82s3.09,5.82,3.69,7.68c.6,1.86,3.32,5.01,5.5,6.63,2.19,1.62,5.2,6.95,6.48,9.46,1.28,2.51,2.56,6.22,3.69,6.47,1.13.24-.68-6.79.9-6.87,1.58-.08,4.67,6.55,6.63,7.68,1.96,1.13-2.86-4.69-.6-5.82,2.26-1.13,5.35.08,7.46.24,2.11.16,6.33-.65,10.02-3.48,3.69-2.83,9.34-8.89,10.63-10.83,1.28-1.94,1.21-5.9-.9-6.39-2.11-.49-4.37-1.54-3.47-3.15.9-1.62,4.6-1.94,7.16-.08,2.56,1.86,4.52,2.67,6.41,1.37s.38-3.72.38-6.55Zm-50.15-3.8c-.98,0-1.77-.85-1.77-1.9s.79-1.9,1.77-1.9,1.77.85,1.77,1.9-.79,1.9-1.77,1.9Z"/>
  <path class="uuid-03cf2ac9-7c40-4cef-af4f-f2a1a9f89b5d" d="m171.03,482.2c-.85-2.67,5.76-7.88,7.69-10.79s4.97-11.28,3.67-12.55c-1.3-1.27-12.43,8.55-16.9,11.7-4.46,3.15-8.53,3.33-12.55,1.82-4.01-1.52-11.81-6.73-11.81-6.73-2.56-1.37-.99-2.96,1.58-2.18,3.77,1.13,3.54-2.71,3-4.73-.51-1.87-5.03-8.69-6.54-12.08-1.51-3.4-2.03-6.39-3.54-6.55-1.51-.16-6.63,6.14-8.14,12.21-1.51,6.06-3.62,7.19-6.93,8.08-3.32.89-7.08,1.7-11,4.04-3.92,2.34-10.55,7.03-10.55,7.03-3.52,2.49-3.37,5.4-2.19,7.46,1.19,2.06,11.81,8.97,14.58,10.91s10.57,3.94,12.72,4.85c2.15.91,3.73,2.97,4.63,6.85.9,3.88,1.41,7.52,3.56,7.52s2.37-1.64,3.56-5.33c1.19-3.7.23-6.55-2.26-8.85-2.49-2.3,3.62-3.82,6.22-4.61,2.6-.79,4.13-.24,5.2,1.45,1.07,1.7,2.66,5.82,4.13,5.82s4.69-9.03,5.93-12.55c1.24-3.52,3.73-1.88,5.37,0,1.64,1.88,7.57,8.67,10.63,12.25s7.18,5.27,7.86,4.49-.51-2.91-1.75-5.46c-1.24-2.55-5.31-11.4-6.16-14.07Zm-65.66-5.96c-.98,0-1.77-.85-1.77-1.9s.79-1.9,1.77-1.9,1.77.85,1.77,1.9-.79,1.9-1.77,1.9Z"/>
  <path class="uuid-d8956e8f-7417-4617-8647-7f66a69be5c4" d="m161.48,532.33c-1.58-1.21-5.65-1.7-9.16.12-3.5,1.82-10.17,3.03-13.56,2.79-3.39-.24-2.83-2.67-1.24-3.88,1.58-1.21,4.18-5.34,3.28-7.64-.9-2.3-4.75-5.33-9.04-6.43-4.3-1.09-5.09-1.21-8.36-3.4-3.28-2.18-14.02-7.03-19.1-7.03s-8.7,3.03-11.53,4.85c-2.83,1.82-6.33,3.03-13,5.82-6.67,2.79-12.32,8.61-12.32,8.61-2.03,1.76-3.16,3.76-2.15,4.12,1.02.36,3.11.55.51,3.09-2.6,2.55,8.2,9.52,8.2,9.52,2.94,2.91,9.38,5.82,11.53,6.31s4.41-.24,5.2,7.4c.79,7.64,6.33,10.91,8.7,12.61,2.37,1.7,1.81-3.4,2.6-6.55.79-3.15.57-3.52-1.58-7.88-2.15-4.36,9.61,1.09,12.66,3.15,3.05,2.06,11.87,2.67,15.26,1.7,3.39-.97,7.69-5.82,8.14-8.25.45-2.43-4.75-2.79-5.09-4.36-.34-1.58,4.63-.61,6.44-.85,1.81-.24,6.56,2.06,11.08,6.06,4.52,4,6.22,4.85,8.59,4.61s3.05-3.27,2.26-7.64c-.79-4.36.23-5.58,1.92-7.76,1.7-2.18,1.36-7.88-.23-9.09Zm-88.36-1.13c-.98,0-1.77-.85-1.77-1.9s.79-1.9,1.77-1.9,1.77.85,1.77,1.9-.79,1.9-1.77,1.9Z"/>
  <path class="uuid-03cf2ac9-7c40-4cef-af4f-f2a1a9f89b5d" d="m202.93,581.24c-.15-1.86-2.79-2.1-4.67-.65-1.88,1.46-4.97,3.15-8.44,2.99-3.47-.16-6.93.4-9.65-1.78-2.71-2.18-4.82-3.31-1.36-4.28s5.88,2.51,7.16-2.83c1.28-5.34-.98-7.6-.53-11.16.45-3.56-.68-4.85-4.07-4.2-3.39.65-8.06,1.45-11.08,2.02-3.01.57-5.43,1.05-7.08,2.91-1.66,1.86-3.09,3.88-4.22,4.12-1.13.24-3.62-.08-5.2.48,0,0-9.12,2.83-13.64,4.36-4.52,1.54-10.78,4.2-13.26,5.09-2.49.89-7.23,2.91-7.23,5.01s3.32,5.82,7.54,7.36c4.22,1.54,11.53,4.28,13.64,6.22,2.11,1.94,8.59,8.89,10.02,8.97,1.43.08-1.96-3.56-3.01-5.9s1.81-2.26,4.97-2.51c3.17-.24,6.48,0,8.67,3.07,2.19,3.07,7.08,7.19,12.21,8.41,5.12,1.21,12.06,3.07,11.68.65-.38-2.43-1.66-7.03-3.09-9.13s-5.95-4.69-5.05-7.03c.9-2.34,3.39-2.1,7.23-1.29,3.84.81,7.76.73,10.17,1.45,2.41.73,5.35,3.23,6.93,1.86s1.13-3.23.75-6.39c-.38-3.15.75-5.98.6-7.84Zm-75.96,2.95c-.98,0-1.77-.85-1.77-1.9s.79-1.9,1.77-1.9,1.77.85,1.77,1.9-.79,1.9-1.77,1.9Z"/>
  <path class="uuid-4764c7ff-d0af-4d2e-bacf-360a223e5258" d="m285.71,539c.9-2.55.57-4.24-2.88-2.91-3.45,1.33-7.18,2.73-10.51,4.49s-6.39,2.49-10.79,1.09c-4.41-1.39-11.3-3.7-16.05-5.4-4.75-1.7-9.89-1.58-9.66-4.61.23-3.03,2.32-9.09,1.24-9.76-1.07-.67-3.5.18-7.29,1.76-3.79,1.58-9.5,7.15-11.47,8.06-1.98.91-5.14.85-5.14.85,0,0-17.75,2.43-23.96,3.52-6.22,1.09-11.87,3.15-11.76,5.94s6.56,6.79,10.4,7.88c3.84,1.09,12.89,3.52,14.58,5.21,1.7,1.7,2.83,5.46,4.18,5.82,1.36.36-.68-4.49,1.24-4.61,1.92-.12,8.82.49,12.43,1.82,3.62,1.33,10.63,6.91,13.56,7.4,2.94.49-.34-1.33.23-4.61.57-3.27,3.39-3.03,8.14-3.03s8.53-1.27,10.85-1.03,8.53,5.46,10.51,6.61c1.98,1.15,2.09,1.33,1.53-2.61-.57-3.94.23-6.67,2.88-6.06,2.66.61,7.35,4,10.57,5.76,3.22,1.76,6.33,4.49,5.6.97-.73-3.52-3.05-8.49-1.81-11.82,1.24-3.33,2.49-8.18,3.39-10.73Zm-99.81,5.25c-.98,0-1.77-.85-1.77-1.9s.79-1.9,1.77-1.9,1.77.85,1.77,1.9-.79,1.9-1.77,1.9Z"/>
  <path class="uuid-4d37fded-c862-4d1c-a039-01027b87ddce" d="m361.03,579.78c1.28-2.67,5.88-8.49,5.43-10.02-.45-1.54-3.99-.16-6.48,1.45s-7.01,5.09-9.42,5.5c-2.41.4-11.61-.97-17.48-2.1-5.88-1.13-18.91-3.23-23.06-4.37-4.14-1.13-6.48-1.37-6.93-5.9-.45-4.53-.9-7.03-2.26-7.19-1.36-.16-3.32,1.05-4.52,2.75-1.21,1.7-4.45,5.9-6.93,6.87,0,0-26.9,1.54-38.28,2.34-11.38.81-18.91,5.42-18.69,7.6.23,2.18,5.95,5.82,9.57,6.63,3.62.81,15.07,2.1,16.73,3.07,1.66.97,5.65,5.5,7.39,6.47,1.73.97,3.47-.24,2.56-2.51-.9-2.26-1.43-4.2,2.19-3.64,3.62.57,8.14.4,10.93.4s4.22.89,6.25,2.67,1.43,2.51,3.01,1.7c1.58-.81,1.96-3.15,4.67-3.96,2.71-.81,7.23-1.54,10.78-1.29,3.54.24,9.57,1.54,11.91,3.07,2.34,1.54,3.99,2.1,5.8,1.54,1.81-.57-3.84-3.4-2.03-5.01,1.81-1.62,3.77-1.13,7.16-.73,3.39.4,11.3.24,14.09-.08,2.79-.32,7.23.89,10.32,1.94,3.09,1.05,8.36,3.56,10.7,4.12,2.34.57,1.06-2.51,0-5.17-1.05-2.67-4.67-3.48-3.39-6.14Zm-120.42-2.06c-.98,0-1.77-.85-1.77-1.9s.79-1.9,1.77-1.9,1.77.85,1.77,1.9-.79,1.9-1.77,1.9Z"/>
  <path class="uuid-d8956e8f-7417-4617-8647-7f66a69be5c4" d="m257.79,617.69c-.15-3.64-.15-4.77-.15-7.28s-2.41-5.5-4.75-2.91c-2.34,2.59-2.49,5.17-5.28,5.98-2.79.81-7.61,3.15-5.12-2.99,2.49-6.14,2.86-8.24,2.94-11.8.08-3.56-.68-8-5.43-7.44-4.75.57-13.56.32-18.09,1.29,0,0-10.7,3.07-14.02,6.31-3.32,3.23-10.1,12.61-10.93,15.6-.83,2.99-1.88,6.71,2.34,11.07,4.22,4.36,11.91,10.91,15.75,11.8,3.84.89,15.15,4.12,20.2,4.36,5.05.24,9.42,0,12.13-1.37s1.96-3.48.3-7.11c-1.66-3.64-5.35-9.3-4.52-11.4.83-2.1,3.32-.97,6.18.73,2.86,1.7,4.22,3.15,5.95,2.75,1.73-.4,2.64-3.96,2.49-7.6Zm-53.66-1.82c-.98,0-1.77-.85-1.77-1.9s.79-1.9,1.77-1.9,1.77.85,1.77,1.9-.79,1.9-1.77,1.9Z"/>
  <path class="uuid-03cf2ac9-7c40-4cef-af4f-f2a1a9f89b5d" d="m344.26,624c0-2.91-.9-9.34-3.62-8.61-2.71.73-3.96,4.61-5.54,3.88-1.58-.73-2.49-2.3-.23-6.43,2.26-4.12,1.13-9.46-1.81-10.43-2.94-.97-8.25-.49-14.24,0-5.99.49-20.12.85-24.76,1.58,0,0-8.14,1.33-11.98,4.24-3.84,2.91-7.69,6.43-9.38,9.94-1.7,3.52-3.73,6.79-5.31,8.37s-4.18,5.34-1.02,7.52c3.16,2.18,11.76,7.64,16.62,9.34,4.86,1.7,18.31,7.03,18.43,5.7.11-1.33-8.03-5.34-4.97-5.7s8.59,1.7,15.26,2.67c6.67.97,13.11,1.7,18.2-.12,5.09-1.82,8.03-2.43,7.46-7.03-.57-4.61-2.03-9.82,1.13-7.76,3.16,2.06,6.33,3.15,6.56.49.23-2.67-.79-4.73-.79-7.64Zm-69.14,2.38c-.98,0-1.77-.85-1.77-1.9s.79-1.9,1.77-1.9,1.77.85,1.77,1.9-.79,1.9-1.77,1.9Z"/>
  <path class="uuid-d8956e8f-7417-4617-8647-7f66a69be5c4" d="m430.59,623.51c.83-2.99.75-8.33-2.64-6.87s-8.97,2.67-11.98,2.51c-3.01-.16-7.91-.32-8.59-2.83-.68-2.51,1.13-3.31,4.14-8.49s4.97-10.99,3.54-12.77c-1.43-1.78-3.16.08-5.88,1.37s-12.06,3.88-17.78,4.61c-5.73.73-14.62.81-17.86,2.1s-4.97,5.5-7.39,6.95c0,0-6.25,1.78-8.67,2.91-2.41,1.13-9.5,3.72-9.34,6.47.15,2.75,3.99,6.79,7.61,8.65,3.62,1.86,9.19,4.12,11.76,5.66,2.56,1.54,7.16,8.41,9.19,9.62s3.77,1.78,3.69-.73c-.08-2.51-5.35-4.28-5.35-6.63s3.01-1.54,5.8-2.34c2.79-.81,4.07.24,6.33,3.8,2.26,3.56,8.67,7.84,12.21,8.49,3.54.65,11.45,2.26,13.94,1.62,2.49-.65-2.03-3.48-2.56-6.47-.53-2.99.08-5.9-1.36-7.36-1.43-1.46-4.45-1.7-3.84-3.48.6-1.78,4.82-2.42,8.52-2.1,3.69.32,7.84.57,11.38,2.42,3.54,1.86,5.35,3.48,5.12-1.29s-.83-2.83,0-5.82Zm-75.58-2.95c-.98,0-1.77-.85-1.77-1.9s.79-1.9,1.77-1.9,1.77.85,1.77,1.9-.79,1.9-1.77,1.9Z"/>
  <path class="uuid-4764c7ff-d0af-4d2e-bacf-360a223e5258" d="m465.55,572.47c-.45-3.03.23-7.64,2.37-10.19s5.31-5.82,4.86-7.76c-.45-1.94-3.73-1.33-6.56-.61-2.83.73-7.35,3.52-8.59,5.21s-3.5,4-9.83,1.45c-6.33-2.55-14.13-4.97-13.68-7.52.45-2.55,2.49-2.43,4.86-3.03,2.37-.61,1.81-4.37,0-6.43-1.81-2.06-5.54-3.52-6.78-7.4-1.24-3.88-1.7-8.85-3.5-7.15-1.81,1.7-4.41,3.15-5.2,6.79-.79,3.64-1.81,6.55-3.05,9.09-1.24,2.55-5.09,3.27-9.27,5.09,0,0-11.76,4.24-15.03,6.43-3.28,2.18-7.01,5.21-6.9,8.37.11,3.15,5.65,8.61,9.27,11.28,3.62,2.67,9.16,6.18,13.23,6.67,4.07.48,6.9.85,8.36,3.64,1.47,2.79,1.47,8.37,3.62,10.19s3.96.85,6.22-2.55c2.26-3.4,2.26-8,.34-9.46-1.92-1.45-5.88-.24-4.75-2.43s3.84-2.67,7.23-3.88,6.22,1.09,8.14,4c1.92,2.91,3.05,5.21,4.41,5.09,1.36-.12.23-5.21,1.24-8.61,1.02-3.4,2.83-6.79,6.1-5.46,3.28,1.33,8.36,4.85,11.98,5.94s5.43.85,5.76-.48c.34-1.33-4.41-3.27-4.86-6.31Zm-68.95-6.87c-.98,0-1.77-.85-1.77-1.9s.79-1.9,1.77-1.9,1.77.85,1.77,1.9-.79,1.9-1.77,1.9Z"/>
  <path class="uuid-03cf2ac9-7c40-4cef-af4f-f2a1a9f89b5d" d="m384.84,540.82c0-3.88-.11-11.76-2.37-11.76s-5.54,1.7-6.67,2.91-3.84,3.03-3.62-2.55c.23-5.58-1.92-8.12-.68-11.03,1.24-2.91,6.56-5.21,6.22-6.67-.34-1.45-4.3.12-8.25.85-3.96.73-8.59.61-13.79.73-5.2.12-10.17.61-14.81,1.94,0,0-9.95,2.67-14.69,6.91-4.75,4.24-3.73,6.18-5.76,9.34-2.03,3.15-6.78,5.09-7.23,8.12s2.83,6.91,5.88,8.97c3.05,2.06,7.23,5.94,11.19,7.64,3.96,1.7,6.56,2.91,9.04,5.34,2.49,2.42,3.05,2.79,3.73,1.94.68-.85-.57-9.94,1.13-9.09,1.7.85,5.99,4.12,10.17,5.21,4.18,1.09,10.17,2.55,15.83.48,5.65-2.06,5.09-5.7,5.2-9.46.11-3.76.34-7.64,2.94-4.61,2.6,3.03,3.84,4.61,5.65,3.76,1.81-.85.9-5.09.9-8.97Zm-63.15-3.03c-.98,0-1.77-.85-1.77-1.9s.79-1.9,1.77-1.9,1.77.85,1.77,1.9-.79,1.9-1.77,1.9Z"/>
  <path class="uuid-8276d096-f04c-4db2-b102-9d6d67d1f898" d="m432.32,496.12c-2.49,1.86-5.43,4.77-8.44,4.36-3.01-.4-6.25-.48-4.82-12.29,1.43-11.8-.6-21.02-3.16-21.58-2.56-.57-5.35.32-9.12,1.94-3.77,1.62-11.38,6.22-14.77,9.86,0,0-1.88,1.94-5.58,4.37-3.69,2.43-5.05,4.85-6.18,7.44-1.13,2.59-2.11,4.45-3.47,5.17-1.36.73-4.3,2.42-4.37,3.8-.08,1.37,2.49,3.56,4.37,3.64,1.88.08,7.54,3.8,9.87,6.06,2.34,2.26,9.12,7.52,13.64,11.24,4.52,3.72,10.78,6.95,14.92,6.71,4.14-.24,3.92-1.37,4.52-6.95.6-5.58-1.13-10.51.53-12.21,1.66-1.7,3.39-.65,5.2,1.94,1.81,2.59,4.3,6.63,6.03,6.22s2.49-2.83,2.79-6.79c.3-3.96,1.28-6.63,1.43-9.62.15-2.99-.9-5.17-3.39-3.31Zm-48.98,1.41c-.98,0-1.77-.85-1.77-1.9s.79-1.9,1.77-1.9,1.77.85,1.77,1.9-.79,1.9-1.77,1.9Z"/>
  <path class="uuid-03cf2ac9-7c40-4cef-af4f-f2a1a9f89b5d" d="m371.29,449.87c-.42-3.07,2.13-4.91,1.75-7.04-.54-3.04-4.42-.98-7.09,1.06-2.22,1.71-4.57,4.59-6.63,5.98-2.06,1.39-5.26.08-6.4-2.05-1.14-2.13,3.35-2.62,4.11-4.42.76-1.8-.38-3.68-.91-6.3-.53-2.62,4.86-7.51,6.4-9.17,2.29-2.46,4.04-3.52,3.89-4.26s-1.9-.49-5.18.33c-3.28.82-8.69,3.68-10.97,5.4-2.29,1.72-12.95,7.86-15.62,9.33-2.67,1.47-8.76,5.81-10.06,8.6-1.3,2.78-3.01,3.54-4.34,4.18-2.68,1.27-4.15,2.33-4.27,3.93-.11,1.56.91,2.13,2.97,3.68s6.86,5.4,10.59,7.12c3.73,1.72,3.35,1.64,4.65,4.34,1.3,2.7,4.57,5.24,10.44,8.02,5.87,2.78,9.91,3.77,13.72,4.18,3.81.41,7.68.58,7.95-.74.12-.6-1.6-.37-4.52-2.7-2.54-2.03-5.91-5.16-7.16-9.66-1.46-5.21-.31-10.48.46-12.04,1.1-2.25,4.53-2,6.48-1.15,2.9,1.27,5.41,3.03,7.77,3.6,2.36.57,4.27.33,4.57-1.56.3-1.88-1.75-2.54-2.59-8.68Zm-47.33,6.76c-.98,0-1.77-.85-1.77-1.9s.79-1.9,1.77-1.9,1.77.85,1.77,1.9-.79,1.9-1.77,1.9Z"/>
  <path class="uuid-4d37fded-c862-4d1c-a039-01027b87ddce" d="m307.45,442.2c-.08-2.26,1.13-5.74-.75-5.58-1.88.16-4.75,1.37-6.63,2.83s-4.14,3.48-4.07-1.37c.08-4.85,0-9.78,1.73-12.29,1.73-2.51,4.9-3.07,5.73-4.37.83-1.29-.98-1.29-4.67-1.21-3.69.08-18.46-.24-23.13.32-4.67.57-10.17,2.26-13.19,2.83,0,0-8.21,1.62-11.45,4.61-3.24,2.99-4.75,5.25-6.25,8.33-1.51,3.07-2.19,5.82-4.3,7.6-2.11,1.78-2.64,2.75-2.94,4.28-.3,1.54,2.71,4.85,5.12,6.87,2.41,2.02,6.1,6.63,9.5,8.24,3.39,1.62,6.86,3.31,9.5,5.17s5.73,5.42,7.84,4.93c2.11-.49-.9-2.91-1.88-4.85s-2.64-4.77-.9-4.93c1.73-.16,11.45,3.56,15.15,4.61,3.69,1.05,7.16,1.37,10.25.4,3.09-.97,7.69-2.34,7.31-6.87-.38-4.53-2.71-10.02-1.06-10.67,1.66-.65,4.67-.24,5.95,2.59,1.28,2.83,1.43,4.69,2.49,5.09,1.06.4,1.81-3.72,2.19-7.36.38-3.64-1.43-6.95-1.51-9.22Zm-60.36,4.73c-.98,0-1.77-.85-1.77-1.9s.79-1.9,1.77-1.9,1.77.85,1.77,1.9-.79,1.9-1.77,1.9Z"/>
  <path class="uuid-d8956e8f-7417-4617-8647-7f66a69be5c4" d="m317.63,491.03c.23-2.59-1.73-5.25-3.77-2.43-2.03,2.83-3.77,5.5-5.2,6.95s-2.49,3.23-3.01-1.54-6.03-8.81-9.72-10.51c-3.69-1.7-16.8-2.83-23.29.24,0,0-9.42,3.56-11.68,6.31-2.26,2.75-3.84,6.47-4.37,9.54s-.98,5.82-2.11,6.55c-1.13.73-1.28,2.26.9,3.72s6.18,4.53,8.74,5.17c2.56.65,7.46,1.54,9.95,3.48s3.69,4.12,5.2,3.64c1.51-.49-2.64-2.42-.68-4.2,1.96-1.78,4.22.49,7.46.49s8.97-1.21,11.76-2.59c2.79-1.37,6.48-4.61,7.16-7.36.68-2.75.9-5.33,3.62-3.64s6.71,4.85,8.14,4.28c1.43-.57-1.81-3.72-.68-7.68s1.36-7.84,1.58-10.43Zm-55.61,7.64c-.98,0-1.77-.85-1.77-1.9s.79-1.9,1.77-1.9,1.77.85,1.77,1.9-.79,1.9-1.77,1.9Z"/>
  <path class="uuid-d8956e8f-7417-4617-8647-7f66a69be5c4" d="m405.53,401.99c.4-1.39,4.3-3.94,6.33-6.12,2.03-2.18,3.39-4.43,3.11-5.27-.28-.85-4.18.97-5.99,2.18-1.81,1.21-9.16,4.85-13.06,4.97-3.9.12-21.93-2.55-27.07-3.46-5.14-.91-16.79-.79-18.54-4.85-1.75-4.06-1.75-11.64-2.49-11.82-.73-.18-3.79,3.09-6.1,5.46-2.32,2.36-4.92,5.64-8.93,5.64s-16.96-.91-25.09.49c-8.14,1.39-23.91,6.61-23.91,6.61,0,0-4.18.97-4.18,2.79s2.94,4.97,12.09,6.31c9.16,1.33,14.81,1.45,16.05,4.12,1.24,2.67,3.84,5.94,5.48,6.24,1.64.3-1.64-5.82-.62-6.79,1.02-.97,4.92-.24,9.38.3,4.46.55,10.57,0,10.57,0,0,0,3.28,5.27,4.46,5.4,1.19.12,1.75-4.49,3.84-5.64,2.09-1.15,9.89-1.45,13.79-1.03,3.9.42,11.13,3.27,13.62,3.4,2.49.12,4.35-.85,2.83-1.82s-4.35-2.85-3.9-3.58c.45-.73,5.6-.73,12.04-.48,6.44.24,15.26.12,19.72,1.76,4.46,1.64,12.55,5.4,14.3,5.27,1.75-.12,1.53-.79-.73-3.03-2.26-2.24-7.4-5.64-7.01-7.03Zm-119.4-1.62c-.98,0-1.77-.85-1.77-1.9s.79-1.9,1.77-1.9,1.77.85,1.77,1.9-.79,1.9-1.77,1.9Z"/>
  <path class="uuid-03cf2ac9-7c40-4cef-af4f-f2a1a9f89b5d" d="m356.21,365.82c-1.43-2.67-2.94-8.08-1.66-12.45,1.28-4.37,1.36-9.94-1.96-6.22-3.32,3.72-4.9,8.24-7.84,9.13-2.94.89-12.36.08-18.39-1.86s-7.69-2.99-7.54-8.57c.15-5.58-.9-3.56-3.62-1.7-2.71,1.86-9.8,6.87-15.22,7.19s-21.18,4.28-27.28,7.48c0,0-7.57,2.79-7.01,7.28.57,4.49,5.09,5.94,14.24,7.28,9.16,1.33,19.67,1.58,25.17.77,5.5-.81,12.81-2.18,15.67-1.54,2.86.65,5.73,1.94,7.01,1.13s-2.11-2.59-.6-3.72c1.51-1.13,10.02-7.84,14.09-7.92,4.07-.08,8.52,3.23,11.61,5.09,3.09,1.86,4.75,1.29,3.32-1.37Zm-81.84.61c-.98,0-1.77-.85-1.77-1.9s.79-1.9,1.77-1.9,1.77.85,1.77,1.9-.79,1.9-1.77,1.9Z"/>
  <path class="uuid-4764c7ff-d0af-4d2e-bacf-360a223e5258" d="m426.37,349.08c.15-2.34-.68-5.9-4.67-3.48-3.99,2.43-9.8,4.12-8.52.97s4.82-4.12,5.2-8.25c.38-4.12-3.01-9.13-7.99-11.24-4.97-2.1-24.34-9.86-29.39-3.64,0,0-5.43,5.58-7.08,9.3-1.66,3.72-2.79,4.2-5.2,6.31-2.41,2.1-4.37,6.71-4.9,9.05-.53,2.34-3.92,5.34-2.56,9.13,1.36,3.8,3.62,10.83,6.03,13.58,2.41,2.75,5.43,4.12,6.86,7.19,1.43,3.07,8.14,11.64,8.89,11.96.75.32-.6-4.28-.53-5.82.08-1.54,1.81,1.21,3.39,3.4,1.58,2.18,1.73,3.07,2.79,3.07s-1.81-7.76-1.36-9.3c.45-1.54,3.62.32,7.46,1.29,3.84.97,9.27-.24,12.66-3.31s7.31-7.44,9.04-9.86c1.73-2.42,2.49-5.25-.3-6.87-2.79-1.62-4.37-5.25-.68-3.56s5.27,3.23,7.23,4.28c1.96,1.05,3.69-.89,3.69-4.69s-.23-7.19-.08-9.54Zm-56.9.53c-.98,0-1.77-.85-1.77-1.9s.79-1.9,1.77-1.9,1.77.85,1.77,1.9-.79,1.9-1.77,1.9Z"/>
  <path class="uuid-8276d096-f04c-4db2-b102-9d6d67d1f898" d="m500.76,393.62c-.45-2.18-.96-3.64-.51-5.52.45-1.88-1.41-6.18-3-4.67-1.58,1.52-3.33,4.37-4.86,4.49-1.53.12-3.62-1.21-1.81-4.18s2.83-5.27,2.2-8.79c-.62-3.52-2.09-3.64-5.54-3.46-3.45.18-19.1.36-23.85.48-4.75.12-16.79,1.21-20.91,3.21,0,0-7.8,2.67-10.51,6.91s-6.33,8.37-8.25,9.22c-1.92.85-4.86,4.55-2.2,7.09,2.66,2.55,15.94,8.73,20.12,10.25,4.18,1.52,8.03,3.76,12.49,4.61,4.46.85,6.73.85,5.93-.18-.79-1.03-6.84-4.36-6.05-5.64.79-1.27,4.3-.85,9.55.12,5.26.97,11.53,2.36,16.22,2.49,4.69.12,10.96-.79,12.83-3.21,1.87-2.43,2.43-5.7,1.02-8-1.41-2.3-1.98-7.21.9-4.55,2.88,2.67,4.52,3.58,5.99,3.58s.68-2.06.23-4.24Zm-69.2-1.98c-.98,0-1.77-.85-1.77-1.9s.79-1.9,1.77-1.9,1.77.85,1.77,1.9-.79,1.9-1.77,1.9Z"/>
  <path class="uuid-4764c7ff-d0af-4d2e-bacf-360a223e5258" d="m469.55,446.41c-1.51-4.28-1.28-4.85-.83-6.95.45-2.1-.75-3.15-5.12-1.78-4.37,1.37-11.38,1.94-14.92,1.78-3.54-.16-6.33-.89-4.67-3.31,1.66-2.42,4.97-2.1,7.08-2.91,2.11-.81,3.24-5.25,2.34-9.38-.9-4.12-.08-7.44-3.24-6.55-3.17.89-8.36,1.86-13.56,2.83-5.2.97-13.19,2.43-18.69,3.07-5.5.65-8.21.73-10.32,3.48-2.11,2.75-.97,3.42-6.63,5.34-2.04.69-4.9,2.67-7.84,3.72-2.94,1.05-6.18,2.51-6.03,4.36.15,1.86,4.9,6.31,8.06,7.84,3.16,1.54,9.65,3.88,11.38,5.82,1.73,1.94,4.45,6.39,6.86,7.36,2.41.97,5.12,1.78,4.3-.08-.83-1.86-4.14-3.23-3.54-4.45.6-1.21,3.39-2.18,5.65-2.99,2.26-.81,4.82.08,7.54,3.96s7.61,8.57,12.58,9.62c4.97,1.05,8.14,2.43,11.15,1.86,3.01-.57.08-3.72-.98-6.79-1.05-3.07-.38-5.01-2.26-6.63-1.88-1.62-5.05-1.62-4.9-4.04.15-2.42,3.77-2.67,7.69-2.34,3.92.32,5.5-.81,9.42.48,3.92,1.29,4.9,2.18,6.93,2.1,2.03-.08,4.07-1.13,2.56-5.42Zm-75.81-4.97c-.98,0-1.77-.85-1.77-1.9s.79-1.9,1.77-1.9,1.77.85,1.77,1.9-.79,1.9-1.77,1.9Z"/>
  <path class="uuid-03cf2ac9-7c40-4cef-af4f-f2a1a9f89b5d" d="m537.6,446.49c-.38-1.7-3.24-3.39-5.2-1.13s-3.77,3.4-6.78,2.91c-3.01-.48-6.86-.48-3.77-2.91,3.09-2.43,6.56-3.4,7.91-6.87,1.36-3.48-.3-8.08-3.92-10.91-3.62-2.83-10.63-5.17-14.77-5.9-4.14-.73-12.36-1.94-18.09,1.13,0,0-3.32,1.7-4.9,4.04-1.58,2.34-2.34,5.98-3.62,6.63-1.28.65-6.41,3.72-6.86,6.55-.45,2.83-1.88,7.76-3.09,9.46-1.21,1.7-3.16,3.48-2.79,5.66.38,2.18,3.16,6.63,4.3,8.57s3.54,6.22,5.88,8.08c2.34,1.86,3.84,2.26,4.3,5.01.45,2.75,2.34,6.55,4.6,7.76s.38-1.7,1.43-2.83c1.05-1.13,5.73,6.08,5.65,4.53-.11-2.36-2.09-4.18-.08-4.93,2.68-1,6.63,1.45,9.87,1.37,3.24-.08,10.55-2.1,13.79-6.55,3.24-4.45,7.31-9.3,7.61-11.16.3-1.86-2.34-2.67-4.45-4.04s-2.79-2.34-1.58-3.23c1.21-.89,6.25.32,8.59,1.54s6.33,1.13,6.33-3.72,0-7.36-.38-9.05Zm-55.39,3.19c-.98,0-1.77-.85-1.77-1.9s.79-1.9,1.77-1.9,1.77.85,1.77,1.9-.79,1.9-1.77,1.9Z"/>
  <path class="uuid-d8956e8f-7417-4617-8647-7f66a69be5c4" d="m538.58,518.19c1.96-1.29,2.56-4.69,1.21-6.71-1.36-2.02-4.3-2.26-6.71-1.13-2.41,1.13-5.27,4.04-8.89,4.53s-12.13.73-11.3-1.78c.83-2.51,4.07-3.64,4.14-7.36.08-3.72-.45-9.54-6.56-9.05s-10.4,1.37-13.34.73c-2.94-.65-8.74-5.17-11.68-5.82-2.94-.65-5.5.4-10.1,2.59-4.6,2.18-3.99,6.14-6.71,7.6-2.71,1.45-5.88,2.18-5.88,2.18,0,0-7.31,2.91-11.08,4.61s-8.14,4.61-10.17,6.39c-2.03,1.78-3.62,3.96-3.47,6.87.15,2.91,1.51,5.9,4.6,7.44,3.09,1.54,7.76,4.36,12.28,4.93,4.52.57,7.76,1.45,11.23,4.04,3.47,2.59,8.97,8.89,11.61,9.22,2.64.32,3.77.49,3.17-1.7-.6-2.18-4.22-5.17-3.24-6.31.98-1.13,3.62-1.45,6.41-.16,2.79,1.29,8.82,5.17,13.04,5.82,4.22.65,8.82.57,12.58-1.13s4.97-4.36,5.43-7.52c.45-3.15-1.13-1.7-4.22-3.07-3.09-1.37-4.9-3.4-4.07-4.85.83-1.45,3.32-2.59,6.56-1.62s8.97,4.77,11.61,5.82c2.64,1.05,7.99,3.31,10.55,2.59,2.56-.73,4.3-1.94,2.56-5.25-1.73-3.31-3.54-2.02-3.62-5.42-.08-3.4,2.11-5.17,4.07-6.47Zm-88.17-1.25c-.98,0-1.77-.85-1.77-1.9s.79-1.9,1.77-1.9,1.77.85,1.77,1.9-.79,1.9-1.77,1.9Z"/>
  <path class="uuid-8276d096-f04c-4db2-b102-9d6d67d1f898" d="m586.62,578.53c1.24-4.24,4.63-15.52,2.71-16.13-1.92-.61-5.31,1.45-8.48,2.3-3.17.85-6.56,4.36-9.83,5.09-3.28.73-14.47-4.36-19.78-5.7-5.31-1.33-12.55-1.45-11.76-3.76.79-2.3,4.41-1.58,4.63-3.4.23-1.82-3.84-9.82-7.8-8.49-3.96,1.33-8.7,3.03-11.3,5.82-2.6,2.79-3.17,5.46-5.54,5.82,0,0-14.47.97-20.91,2.18-6.44,1.21-16.39,4.12-16.39,7.03s2.94,6.67,7.69,7.4c4.75.73,12.89,1.58,15.6,3.76s3.62,7.4,5.43,6.91c1.81-.49-1.58-4,1.47-5.09,3.05-1.09,3.84.24,9.16.85,5.31.61,7.35.61,11.08,4.12,3.73,3.52,4.18,4.97,5.76,4.12,1.58-.85-3.62-5.58.9-6.55s6.1-.36,9.95-.97c3.84-.61,5.09-1.7,8.59,0,3.5,1.7,6.22,5.82,8.59,4.85,2.37-.97.11-2.06.34-5.46.23-3.39,2.6-3.64,6.22-1.7,3.62,1.94,11.64,8.49,14.47,8.12,2.83-.36-2.03-6.91-.79-11.16Zm-98.83-6.63c-.98,0-1.77-.85-1.77-1.9s.79-1.9,1.77-1.9,1.77.85,1.77,1.9-.79,1.9-1.77,1.9Z"/>
  <path class="uuid-d8956e8f-7417-4617-8647-7f66a69be5c4" d="m574.67,624.08c-1.13-1.7-4.52-5.58-3.77-8.73.75-3.15,3.39-12.04,1.66-12.53-1.73-.49-4.6,2.18-5.88,3.72-1.28,1.54-2.94,6.63-4.45,7.03-1.51.4-2.26-5.98-4.6-9.54-2.34-3.56-8.44-6.39-13.64-6.47-5.2-.08-12.13,1.13-15.6,2.3,0,0-9.95,4.24-11.98,6.91-2.03,2.67-3.17,5.7-3.39,8.25-.23,2.55-1.13,4.61-2.26,6.06-1.13,1.46-1.81,3.64,0,5.21,1.81,1.58,7.12,4.37,10.63,4.61,3.5.24,5.43.61,7.8,2.67,2.37,2.06,2.49,3.52,4.86,2.91,2.37-.61-.45-4,2.49-4.24,2.94-.24,2.26,2.34,10.1,1.54,7.84-.81,9.27-2.34,11.83-5.58,2.56-3.23,1.73-8.89,3.84-7.68,2.11,1.21,6.71,5.25,8.97,5.82,2.26.57,4.52-.57,3.39-2.26Zm-56.14-9.5c-.98,0-1.77-.85-1.77-1.9s.79-1.9,1.77-1.9,1.77.85,1.77,1.9-.79,1.9-1.77,1.9Z"/>
  <path class="uuid-4d37fded-c862-4d1c-a039-01027b87ddce" d="m574.72,665.45c.3-4.32,3.49-10.1,0-7.78-3.49,2.32-4.84,5.77-7.06,5.69-2.22-.08-3.81-2.73-3.09-6.57.71-3.85,1.27-8.5,1.19-12.26-.07-3.4-.79-6.17-4.04-7.53-3.52-1.48-7.83-.88-12.37,4.25-4.76,5.37-12.21,7.61-13.8,8.82-1.59,1.2-2.06,5.29-3.09,6.57-1.03,1.28-3.05,1.24-3.81,3.77-.42,1.41,1.08,3.76,3.89,4.73,5.67,1.96,7.61,5.45,11.18,8.9,4.51,4.36,8.33,6.89,12.29,8.18,3.97,1.28,6.19.32,7.85-2.24,1.67-2.57.71-8.98,1.35-11.14.63-2.16,2.91-1.27,4.6,1.34,2.91,4.51,4.6,4.73,5.59,4.21.8-.42-1.11-2.59-.67-8.92Zm-35.39-9.64c-.98,0-1.77-.85-1.77-1.9s.79-1.9,1.77-1.9,1.77.85,1.77,1.9-.79,1.9-1.77,1.9Z"/>
  <path class="uuid-4764c7ff-d0af-4d2e-bacf-360a223e5258" d="m507.75,640.41c-1.06-3.48-1.28-4.69-.75-7.19s-.23-5.34-2.03-5.01c-1.81.32-2.64,2.02-3.99,3.64-1.36,1.62-4.3,5.01-4.9,1.78-.6-3.23-.75-4.53.98-7.68,1.73-3.15,2.49-6.87-.15-10.27-2.64-3.4-6.33-2.75-11.15-2.34-4.82.4-14.92,1.45-19.07,2.18s-10.7.65-15.71,3.27c0,0-9.27,5.58-12.21,8.97-2.94,3.4-7.69,10.06-9.5,11.52-1.81,1.45-3.16,5.7-1.02,7.64s10.74,6.55,16.73,8.73c5.99,2.18,9.5,4.49,13,6.06,3.5,1.58,6.22,2.18,5.99,1.21-.23-.97-5.2-5.7-4.41-6.55.79-.85,7.57.97,11.76,1.7,4.18.73,9.61,2.38,15.03,2.14,5.43-.24,11.53-3.72,13.34-6.14,1.81-2.43,1.21-4.69.15-7.28s-1.66-4.36.6-3.64c2.26.73,3.62,2.59,4.97,2.91,1.36.32,3.39-2.18,2.34-5.66Zm-70.31-2.38c-.98,0-1.77-.85-1.77-1.9s.79-1.9,1.77-1.9,1.77.85,1.77,1.9-.79,1.9-1.77,1.9Z"/>
  <path class="uuid-03cf2ac9-7c40-4cef-af4f-f2a1a9f89b5d" d="m528.18,687.43c-.41-3.11,2.09-4.98,1.72-7.13-.53-3.08-4.33-1-6.94,1.08-2.18,1.73-4.48,4.64-6.49,6.05-2.01,1.41-5.15.08-6.27-2.07-1.12-2.16,3.28-2.65,4.03-4.48.75-1.82-.37-3.73-.9-6.39-.52-2.65,4.76-7.61,6.27-9.29,2.24-2.49,3.96-3.57,3.81-4.31-.15-.75-1.87-.5-5.07.33-3.21.83-8.51,3.73-10.75,5.47-2.24,1.74-12.69,7.96-15.3,9.45-2.61,1.49-8.58,5.89-9.85,8.71-1.27,2.82-2.95,3.59-4.25,4.23-2.63,1.29-4.07,2.36-4.18,3.98-.11,1.58.9,2.16,2.91,3.73,2.01,1.58,6.72,5.47,10.37,7.21,3.66,1.74,3.28,1.66,4.55,4.4,1.27,2.74,4.48,5.31,10.22,8.13,5.75,2.82,9.7,3.81,13.43,4.23,3.73.41,7.52.59,7.79-.75.12-.61-1.57-.37-4.43-2.74-2.49-2.06-5.78-5.22-7.02-9.79-1.43-5.28-.3-10.61.45-12.19,1.08-2.28,4.43-2.03,6.34-1.16,2.84,1.29,5.3,3.07,7.61,3.65s4.18.33,4.48-1.58c.3-1.91-1.72-2.57-2.54-8.79Zm-48.23,6.2c-.98,0-1.77-.85-1.77-1.9s.79-1.9,1.77-1.9,1.77.85,1.77,1.9-.79,1.9-1.77,1.9Z"/>
  <path class="uuid-d8956e8f-7417-4617-8647-7f66a69be5c4" d="m596.38,717.12c1.21-3.4,4.52-8.97,7.23-11.56,2.71-2.59,4.22-5.9,3.24-7.11-.98-1.21-3.84.81-5.88,1.86-2.03,1.05-9.8,8.16-12.28,9.54-2.49,1.37-6.1.73-9.57-.57-3.47-1.29-9.8-2.83-10.55-5.42-.75-2.59,1.28-2.91,3.62-2.99s4.3-.81,2.26-5.42c-2.03-4.61-4.3-13.34-7.91-10.91s-5.8,5.34-7.16,8.25c-1.36,2.91-2.64,3.48-4.82,4.45-2.19.97-3.47.16-5.35.81,0,0-5.73,2.1-9.42,4.69-3.69,2.59-10.25,7.76-10.17,10.35.08,2.59-.08,5.58,3.24,8.41,3.32,2.83,7.16,4.53,11.91,6.06,4.75,1.54,9.95,2.51,11.53,5.01,1.58,2.51,2.71,9.54,4.67,10.19s3.24-2.1,4.45-5.25c1.21-3.15-.68-4.77-2.11-6.55-1.43-1.78-.75-2.51,2.56-3.96,3.32-1.45,4.67-4.28,6.78-1.21,2.11,3.07,4.52,6.87,5.8,7.19,1.28.32,2.49-5.09,3.01-8.33.53-3.23,2.19-5.42,3.47-4.93,1.28.48,2.19,3.31,4.75,6.3,2.56,2.99,7.16,5.01,10.02,6.63,2.86,1.62,3.99,2.91,5.12,2.42s-1.43-5.25-3.16-8.33c-1.73-3.07-6.48-6.22-5.28-9.62Zm-62.32-1.5c-.98,0-1.77-.85-1.77-1.9s.79-1.9,1.77-1.9,1.77.85,1.77,1.9-.79,1.9-1.77,1.9Z"/>
  <path class="uuid-4d37fded-c862-4d1c-a039-01027b87ddce" d="m595.75,494.78c-.26-3.05,2.35-4.72,2.07-6.84-.39-3.03-4.32-1.22-7.05.65-2.28,1.56-4.74,4.26-6.84,5.52-2.1,1.26-5.2-.21-6.22-2.38-1.03-2.16,3.44-2.39,4.28-4.13.84-1.73-.2-3.65-.6-6.27-.4-2.61,5.16-7.13,6.77-8.68,2.38-2.29,4.16-3.24,4.05-3.98-.11-.73-1.86-.59-5.13.03-3.28.62-8.76,3.14-11.1,4.71-2.34,1.57-13.18,7.02-15.88,8.33-2.71,1.3-8.94,5.24-10.35,7.91-1.41,2.67-3.15,3.32-4.49,3.87-2.71,1.1-4.21,2.07-4.41,3.63-.19,1.53.8,2.15,2.76,3.8,1.96,1.65,6.51,5.71,10.11,7.62,3.6,1.9,3.23,1.8,4.38,4.54s4.26,5.42,9.92,8.5c5.66,3.07,9.6,4.27,13.34,4.89,3.74.62,7.56,1.01,7.89-.28.15-.59-1.56-.45-4.34-2.92-2.41-2.14-5.58-5.42-6.6-9.93-1.18-5.22.21-10.35,1.04-11.84,1.2-2.16,4.57-1.72,6.45-.77,2.8,1.41,5.2,3.29,7.5,3.99,2.3.7,4.2.56,4.59-1.28.39-1.84-1.61-2.6-2.14-8.7Zm-47.82,4.12c-.98-.06-1.73-.95-1.67-2,.05-1.05.89-1.85,1.86-1.8s1.73.95,1.67,2c-.05,1.05-.89,1.85-1.86,1.8Z"/>
  <path class="uuid-03cf2ac9-7c40-4cef-af4f-f2a1a9f89b5d" d="m667.51,481.09c-1.36-2.02-3.69-7.28-2.19-11.24,1.51-3.96,1.96-8.65.68-9.22-1.28-.57-3.62.65-5.28,3.39-1.66,2.75-3.69,7.03-4.82,6.95-1.13-.08-1.88-1.78-2.34-8.97-.45-7.19-6.1-7.19-9.95-7.6-3.84-.4-8.82,1.05-12.36,1.37-3.54.32-8.52.24-12.43,2.1,0,0-6.78,3.4-8.82,6.06-2.03,2.67-3.84,5.98-4.37,8.81-.53,2.83-.45,5.25-1.43,5.98-.98.73-2.56,4.04,1.21,5.98,3.77,1.94,7.54,3.31,10.85,4.36,3.32,1.05,7.46,2.18,9.42,4.28s3.17,3.56,4.9,3.56.6-1.54-.3-3.96c-.9-2.42-.75-1.86,3.69-1.54,4.45.32,7.31.73,11.68-.81,4.37-1.54,7.84-2.43,8.74-6.95.9-4.53.9-9.78,3.54-5.82,2.64,3.96,6.63,7.36,8.36,7.28,1.73-.08,2.56-2.02,1.21-4.04Zm-56.14-9.42c-.98,0-1.77-.85-1.77-1.9s.79-1.9,1.77-1.9,1.77.85,1.77,1.9-.79,1.9-1.77,1.9Z"/>
  <path class="uuid-4d37fded-c862-4d1c-a039-01027b87ddce" d="m703.67,518.03c-.73-4.55-1.58-11.16-5.48-7.4-3.9,3.76-6.84,6.24-7.69,4.18-.85-2.06-1.07-9.34-1.24-12.06-.17-2.73.28-4.12,2.49-5.34s3.16-1.03,2.83-2.61-2.6-1.52-6.61-.61c-4.01.91-13.06,1.15-17.29,1.27s-15.15.42-18.26,2.67c0,0-8.36,5.21-10.4,8.37s-4.18,4.85-7.01,9.09-5.65,10.79,0,15.04c5.65,4.24,11.64,6.18,14.36,7.15,2.71.97,8.36,5.46,10.74,7.4s4.35.73,3.62-.97c-.73-1.7-4.18-4.24-4.07-5.94.11-1.7,3.05-1.21,5.65.55,2.6,1.76,8.03,3.46,10.63,4.06,2.6.61,9.44.67,12.04-1.03,2.6-1.7,5.26-3.52,4.52-8.37-.73-4.85-1.58-8.43-.28-8.55,1.3-.12,4.52,1.76,5.82,4.3,1.3,2.55,3.73,4.12,4.86.79,1.13-3.33,1.53-7.46.79-12Zm-65.02,1.98c-.98,0-1.77-.85-1.77-1.9s.79-1.9,1.77-1.9,1.77.85,1.77,1.9-.79,1.9-1.77,1.9Z"/>
  <path class="uuid-d8956e8f-7417-4617-8647-7f66a69be5c4" d="m759.53,548.34c-1.81.32-2.86,2.26-5.58,3.48-2.71,1.21-8.36,5.34-8.97-.65-.6-5.98-3.54-8.81-2.11-12.93,1.43-4.12,3.32-8.73,2.71-13.26-.6-4.53-3.69-7.11-7.61-5.98-3.92,1.13-11.45,4.77-13.87,6.95,0,0-3.09,2.02-4.9,4.36-1.81,2.34-2.26,4.12-5.35,5.34-3.09,1.21-5.65,4.04-7.23,6.47-1.58,2.43-.98,4.28-3.16,6.06-2.19,1.78-5.65,2.67-5.5,4.69.15,2.02,2.03,2.26,3.99,2.67,1.96.4,3.54,1.62,5.88,4.36,2.34,2.75,5.8,4.85,9.65,6.79,3.84,1.94,7.91,5.82,10.7,8s8.14,5.25,11.15,5.09c3.01-.16,5.2-2.34,6.33-7.76,1.13-5.42-1.21-9.13-.53-11.48.68-2.34,1.58-3.64,3.47-.4,1.88,3.23,5.8,9.38,7.39,9.7,1.58.32,2.64-3.64,3.92-7.84,1.28-4.2,1.43-13.98-.38-13.66Zm-47.78-.89c-.98,0-1.77-.85-1.77-1.9s.79-1.9,1.77-1.9,1.77.85,1.77,1.9-.79,1.9-1.77,1.9Z"/>
  <path class="uuid-4d37fded-c862-4d1c-a039-01027b87ddce" d="m812.43,521.5c-1.13-3.4-2.34-6.95-1.43-9.94.9-2.99.3-5.98-1.05-5.42-1.36.57-2.41,1.7-4.75,4.69-2.34,2.99-4.52,6.87-5.35,2.42-.83-4.45-5.43-8.25-8.44-9.3-3.01-1.05-9.27-2.18-13.19-1.54-3.92.65-6.63.73-10.02,2.34,0,0-6.41,3.23-8.36,5.5-1.96,2.26-3.54,5.74-3.84,8.25-.3,2.51-.23,3.72-1.66,4.69-1.43.97-1.81,4.28,1.13,5.5,2.94,1.21,8.97,3.15,11.53,3.96,2.56.81,4.75,3.23,7.08,3.96s2.86,1.54,2.94.16c.08-1.37-2.79-3.64-1.21-4.53,1.58-.89,3.24.57,6.78,1.21,3.54.65,7.01.73,10.47-.97,3.47-1.7,6.86-7.03,6.86-9.78s-.3-1.62,2.19-.32c2.49,1.29,6.03,3.72,8.67,3.56,2.64-.16,2.79-1.05,1.66-4.45Zm-51.17-4.36c-.98,0-1.77-.85-1.77-1.9s.79-1.9,1.77-1.9,1.77.85,1.77,1.9-.79,1.9-1.77,1.9Z"/>
  <path class="uuid-03cf2ac9-7c40-4cef-af4f-f2a1a9f89b5d" d="m749.93,476.08c-.43-3.06,2.17-4.89,1.78-7.02-.55-3.03-4.49-.98-7.2,1.06-2.26,1.7-4.64,4.57-6.73,5.95-2.09,1.39-5.34.08-6.5-2.04s3.4-2.61,4.18-4.41c.77-1.79-.39-3.67-.93-6.28s4.93-7.48,6.5-9.14c2.32-2.45,4.1-3.51,3.95-4.24-.15-.73-1.93-.49-5.26.33-3.33.82-8.82,3.67-11.14,5.38-2.32,1.71-13.15,7.83-15.86,9.3s-8.9,5.79-10.21,8.57c-1.32,2.77-3.06,3.53-4.41,4.16-2.72,1.27-4.22,2.32-4.33,3.92-.11,1.55.93,2.12,3.02,3.67,2.09,1.55,6.96,5.38,10.75,7.1s3.4,1.63,4.72,4.32c1.32,2.69,4.64,5.22,10.6,7.99,5.96,2.77,10.06,3.75,13.93,4.16s7.8.58,8.08-.73c.13-.6-1.62-.37-4.59-2.69-2.58-2.02-6-5.14-7.27-9.63-1.48-5.19-.31-10.44.46-11.99,1.12-2.24,4.59-1.99,6.58-1.14,2.94,1.26,5.49,3.02,7.89,3.59,2.4.57,4.33.33,4.64-1.55.31-1.88-1.78-2.53-2.63-8.65Zm-49.15,7.11c-.98,0-1.77-.85-1.77-1.9s.79-1.9,1.77-1.9,1.77.85,1.77,1.9-.79,1.9-1.77,1.9Z"/>
  <path class="uuid-d8956e8f-7417-4617-8647-7f66a69be5c4" d="m871.88,444.31c-2.03-1.62-5.8-2.34-5.27-4.77.53-2.43,3.47-4.53,5.73-6.71,2.26-2.18,4.14-4.28,3.77-5.42-.38-1.13-5.35.48-7.69,1.94-2.34,1.45-7.84,5.58-11.76,5.58s-16.43-2.75-24.19-4.12-14.62-1.45-17.18-2.18c-2.56-.73-4.67.08-4.9-4.12-.23-4.2-.9-9.46-1.88-9.78-.98-.32-3.09,2.18-4.45,3.8-1.36,1.62-5.2,6.63-6.78,7.28-1.58.65-4.3.16-5.73.08-9.3-.52-24.64.61-37.08,3.64-12.43,3.03-15.15,4.85-15.49,7.03s8.59,5.7,12.66,6.43c4.07.73,11.53,0,14.24,1.82,2.71,1.82,6.67,4.85,9.16,5.58s-1.13-4.24.68-4.61c1.81-.36,11.3-.61,13.68-.48,2.37.12,5.65,4.97,8.48,5.94,2.83.97,3.05-4.73,5.43-5.34,2.37-.61,10.4-.73,13.68-1.33,3.28-.61,5.16,2.26,7.87,3.8,2.71,1.54,3.77,2.26,5.2,2.02,1.43-.24-3.99-6.55.6-6.95s13.34-1.21,18.61-1.13c5.27.08,10.7,2.34,14.69,3.96s7.76,4.28,10.1,3.56c2.34-.73-.15-3.88-2.19-5.5Zm-126.56-6.47c-.98,0-1.77-.85-1.77-1.9s.79-1.9,1.77-1.9,1.77.85,1.77,1.9-.79,1.9-1.77,1.9Z"/>
  <path class="uuid-d8956e8f-7417-4617-8647-7f66a69be5c4" d="m816.31,400.9c.45-3.88,2.15-11.28.79-11.03-1.36.24-3.62.85-5.88,3.88-2.26,3.03-3.17,5.34-4.63,4.73-1.47-.61-2.94-7.03-6.22-9.58-3.28-2.55-11.53-3.64-18.65-2.06,0,0-10.17,2.67-14.24,4.85s-5.65,6.31-5.88,8.37c-.23,2.06-.45,4.73-1.36,5.7s-2.26,2.18.11,3.52c2.37,1.33,10.63,3.88,12.77,5.58,2.15,1.7,6.67,5.7,8.36,5.7s-1.7-5.7,1.58-5.46c3.28.24,7.12,1.33,13.23.61,6.1-.73,7.8-4.73,9.27-8s.79-4.97,3.39-3.27c2.6,1.7,7.23,5.34,9.04,4.85,1.81-.48-2.15-4.49-1.7-8.37Zm-49.89-.57c-.98,0-1.77-.85-1.77-1.9s.79-1.9,1.77-1.9,1.77.85,1.77,1.9-.79,1.9-1.77,1.9Z"/>
  <path class="uuid-03cf2ac9-7c40-4cef-af4f-f2a1a9f89b5d" d="m906.1,397.99c.98-4.45,2.41-12.85.38-12.93-2.03-.08-4.14,2.67-5.73,5.25-1.58,2.59-2.49,5.09-5.88,4.69s-3.39-2.43-4.75-2.1c-1.36.32-2.71,2.43-6.1,1.21s-9.04-.57-9.8-4.36-.98-7.44-3.01-6.31c-2.03,1.13-5.73,4.12-8.21,5.01-2.49.89-8.14,1.54-10.63,3.07,0,0-9.5,3.4-11.98,3.96s-12.13,3.39-14.32,4.45c-2.19,1.05-3.54,2.75-2.19,4.77,1.36,2.02,4.14,5.01,8.14,5.82,3.99.81,11.83,2.18,18.91,2.18s12.51.48,16.43-.08,6.93-.81,9.04-.16c2.11.65,3.24.89,4.67.57,1.43-.32-1.05-4.04,1.13-5.17,2.19-1.13,4.9,3.64,6.41,3.96,1.51.32,2.34-2.34,3.32-5.09.98-2.75.83-5.9,3.01-5.74s6.1,3.07,8.36,4.69c2.26,1.62,4.22,2.91,5.12,2.59.9-.32-3.32-5.82-2.34-10.27Zm-75.58,7.72c-.98,0-1.77-.85-1.77-1.9s.79-1.9,1.77-1.9,1.77.85,1.77,1.9-.79,1.9-1.77,1.9Z"/>
  <path class="uuid-4764c7ff-d0af-4d2e-bacf-360a223e5258" d="m878.48,351.67c-3.05,1.94-4.52,7.28-7.35,5.82-2.83-1.45-2.6-4.37-.57-8.37,2.03-4,1.7-9.46-3.28-9.58-4.97-.12-23.17-.24-33.01,2.79,0,0-10.63,3.64-12.89,5.58-2.26,1.94-4.18,6.18-5.31,7.64-1.13,1.46-5.54,6.31-5.43,8.49.11,2.18,4.75,7.52,8.59,8.97,3.84,1.45,8.7,3.03,11.64,4.97,2.94,1.94,9.04,6.18,11.64,6.67,2.6.48-4.86-5.82-4.41-7.52.45-1.7,2.94-2.18,8.03-.61,5.09,1.58,14.58,4,18.76,2.79,4.18-1.21,8.82-3.88,8.59-8.61s-2.26-6.55,2.03-4.97c4.3,1.58,4.07.97,4.52-3.27.45-4.24,1.47-12.73-1.58-10.79Zm-56.86,5.7c-.98,0-1.77-.85-1.77-1.9s.79-1.9,1.77-1.9,1.77.85,1.77,1.9-.79,1.9-1.77,1.9Z"/>
  <path class="uuid-4d37fded-c862-4d1c-a039-01027b87ddce" d="m934.43,328.51c-.34-3.64-.79-9.94-3.17-8.97-2.37.97-6.78,6.79-9.5,6.91-2.71.12-5.54-.24-3.62-6.18s5.54-16.98-.34-15.76c-5.88,1.21-16.28,1.33-23.29,3.88,0,0-11.08,4.85-14.02,8.61-2.94,3.76-8.59,10.67-8.14,14.31.45,3.64,4.3,8.25,7.01,11.4,2.71,3.15,12.32,8.25,18.31,9.58,5.99,1.33,10.96,2.43,15.49,2.3,4.52-.12,9.95-1.7,9.61-6.67-.34-4.97-4.63-10.18-3.73-12.25.9-2.06,3.28-1.33,7.69.49,4.41,1.82,6.1,2.42,7.57.24,1.47-2.18.45-4.24.11-7.88Zm-57.2,3.31c-.98,0-1.77-.85-1.77-1.9s.79-1.9,1.77-1.9,1.77.85,1.77,1.9-.79,1.9-1.77,1.9Z"/>
  <path class="uuid-4764c7ff-d0af-4d2e-bacf-360a223e5258" d="m854.7,475.27c-.68-2.34-1.21-9.62-6.78-5.09s-8.29,6.79-7.16,3.07c1.13-3.72,4.14-6.87,4.14-9.62s-1.21-5.58-4.9-5.74-21.4.16-32.93,1.21c0,0-9.12.4-13.34,2.26s-8.44,6.55-10.85,8.97c-2.41,2.42-4.97,4.36-5.5,5.5-.53,1.13-4.14,3.64-3.84,5.74.3,2.1,4.6,5.58,7.39,7.19,2.79,1.62,10.32,3.31,14.09,4.61,3.77,1.29,7.84,4.69,11.23,5.01s5.5,1.21,6.41.08c.9-1.13-7.69-3.15-6.63-4.45,1.06-1.29,5.58-1.37,10.47-.65,4.9.73,12.28,2.51,15.67,2.59,3.39.08,11.98-2.59,13.26-4.69,1.28-2.1-.83-5.17-.98-7.92-.15-2.75,2.03-2.34,4.52-.57s3.24,1.62,4.67.16c1.43-1.46,1.73-5.34,1.05-7.68Zm-71.85,3.56c-.98,0-1.77-.85-1.77-1.9s.79-1.9,1.77-1.9,1.77.85,1.77,1.9-.79,1.9-1.77,1.9Z"/>
  <path class="uuid-4764c7ff-d0af-4d2e-bacf-360a223e5258" d="m867.06,551.17c-.53-4.45-.83-5.09-.15-8.41.68-3.31.08-5.66-1.81-4.61-1.88,1.05-4.97,4.53-7.46,4.93-2.49.4-3.77,2.02-3.32-3.31.45-5.33-.38-7.6.68-10.27,1.05-2.67,3.92-4.61,3.84-6.55-.08-1.94-2.41-1.7-7.16-.97-4.75.73-9.65,1.05-13.72,1.21-4.07.16-4.9,0-8.29.57,0,0-10.25,2.51-13.34,4.28-3.09,1.78-8.44,6.14-10.32,8.89-1.88,2.75-4.67,6.47-5.95,8.49-1.28,2.02-4.07,3.8-3.77,5.9.3,2.1,3.47,4.93,5.5,6.87,2.03,1.94,6.93,6.31,9.27,6.87,2.34.57,4.14,2.34,6.71,4.69,2.56,2.34,6.63,4.61,7.76,4.61s-.53-3.56-.9-5.66c-.38-2.1,3.01-1.94,5.95-.81,2.94,1.13,11.45,3.15,15.52,3.07,4.07-.08,7.84-1.54,9.8-4.93,1.96-3.39,1.73-4.45.45-8.73s.3-6.47,2.41-3.8c2.11,2.67,5.73,5.66,7.08,5.82,1.36.16,1.73-3.72,1.21-8.16Zm-62.74-2.14c-.98,0-1.77-.85-1.77-1.9s.79-1.9,1.77-1.9,1.77.85,1.77,1.9-.79,1.9-1.77,1.9Z"/>
  <path class="uuid-03cf2ac9-7c40-4cef-af4f-f2a1a9f89b5d" d="m895.25,599.43c.28-4.36,3.32-10.18,0-7.84-3.32,2.34-4.6,5.82-6.71,5.74-2.11-.08-3.62-2.75-2.94-6.63.68-3.88,1.21-8.57,1.13-12.37-.07-3.43-.75-6.22-3.84-7.6-3.35-1.49-7.44-.89-11.76,4.28-4.52,5.42-11.61,7.68-13.11,8.89-1.51,1.21-1.96,5.33-2.94,6.63-.98,1.29-2.9,1.25-3.62,3.8-.4,1.43,1.03,3.79,3.69,4.77,5.39,1.98,7.23,5.5,10.63,8.97,4.29,4.39,7.91,6.95,11.68,8.24,3.77,1.29,5.88.32,7.46-2.26s.68-9.05,1.28-11.24c.6-2.18,2.77-1.28,4.37,1.35,2.77,4.55,4.37,4.77,5.31,4.24.76-.42-1.05-2.61-.64-8.99Zm-34.63-10.14c-.98,0-1.77-.85-1.77-1.9s.79-1.9,1.77-1.9,1.77.85,1.77,1.9-.79,1.9-1.77,1.9Z"/>
  <path class="uuid-4764c7ff-d0af-4d2e-bacf-360a223e5258" d="m881.23,644.13c-.75-2.51-.3-4.85.38-7.03.68-2.18.3-6.06-2.41-3.88s-9.12,4.2-12.28,3.72c-3.16-.49-11-.49-11.68-2.83-.68-2.34.23-3.4,3.47-3.64,3.24-.24,5.58-.24,6.41-4.2.83-3.96-1.21-5.82-.68-9.05.53-3.23.68-5.09-2.86-3.48-3.54,1.62-8.52,2.18-13.26,2.99-4.75.81-8.36,1.94-13.26,2.42,0,0-10.02,1.37-12.81,2.02-2.79.65-3.69,2.34-4.67,4.12-.98,1.78-1.21,2.42-3.77,3.4-2.56.97-9.42,3.23-11.98,4.53s-2.56,1.94-2.79,3.56c-.23,1.62,3.09,4.45,6.25,6.47,3.17,2.02,9.65,5.82,12.43,6.47s3.39,1.86,4.45,4.28,3.01,4.85,5.5,5.9c2.49,1.05,2.56-.32,1.05-3.4-1.51-3.07-3.54-4.2-1.13-4.93,2.41-.73,3.62-.4,6.56-.24s3.47,2.34,7.01,5.74c3.54,3.4,7.01,5.74,11.53,6.22s6.78,1.37,9.19,1.86c2.41.49,2.19-.24.98-3.88-1.21-3.64-.3-3.64-.75-7.28-.45-3.64-6.33-5.66-4.82-6.95s3.09-1.7,7.16-1.29c4.07.4,6.86,0,9.42,1.46,2.56,1.46,6.03,3.4,7.91,2.83,1.88-.57.23-3.39-.53-5.9Zm-73.06-6.1c-.98,0-1.77-.85-1.77-1.9s.79-1.9,1.77-1.9,1.77.85,1.77,1.9-.79,1.9-1.77,1.9Z"/>
  <path class="uuid-d8956e8f-7417-4617-8647-7f66a69be5c4" d="m918.75,672.52c-.41-3.07,2.08-4.91,1.71-7.04-.53-3.04-4.31-.98-6.91,1.06-2.17,1.7-4.46,4.58-6.46,5.97-2.01,1.39-5.13.08-6.24-2.05-1.11-2.13,3.27-2.62,4.01-4.42.74-1.8-.37-3.68-.89-6.3-.52-2.62,4.74-7.51,6.24-9.16,2.23-2.45,3.94-3.52,3.79-4.25s-1.86-.49-5.05.33c-3.2.82-8.47,3.68-10.7,5.4-2.23,1.72-12.63,7.86-15.23,9.33-2.6,1.47-8.55,5.81-9.81,8.59-1.26,2.78-2.94,3.54-4.24,4.17-2.62,1.27-4.05,2.33-4.16,3.93-.11,1.56.89,2.13,2.9,3.68,2.01,1.55,6.69,5.4,10.33,7.12,3.64,1.72,3.27,1.64,4.53,4.34,1.26,2.7,4.46,5.24,10.18,8.02,5.72,2.78,9.66,3.76,13.38,4.17,3.72.41,7.49.58,7.76-.74.12-.6-1.56-.37-4.41-2.7-2.48-2.03-5.76-5.15-6.98-9.66-1.42-5.21-.3-10.47.45-12.03,1.08-2.25,4.41-2,6.32-1.15,2.82,1.27,5.28,3.03,7.58,3.6,2.3.57,4.16.33,4.46-1.55.3-1.88-1.71-2.54-2.53-8.67Zm-49.2,7.33c-.98,0-1.77-.85-1.77-1.9s.79-1.9,1.77-1.9,1.77.85,1.77,1.9-.79,1.9-1.77,1.9Z"/>
  <path class="uuid-8276d096-f04c-4db2-b102-9d6d67d1f898" d="m845.36,590.7c1.73-4.37,3.69-7.68,3.01-8.81-.68-1.13-4.3.73-6.33,2.02-2.03,1.29-7.16,5.58-10.4,5.82-3.24.24-9.87-.16-10.4-2.51-.53-2.34-3.01-1.86-6.1-2.1s-9.72.16-12.13-.49c-2.41-.65-5.2-1.62-4.07-3.23,1.13-1.62,2.71-1.29,2.79-3.8.08-2.51-4.82-10.43-9.72-8.41-4.9,2.02-7.08,2.83-9.5,5.66-2.41,2.83-4.75,4.04-6.78,4.2,0,0-12.58,1.62-16.88,2.83-4.3,1.21-18.91,4.93-18.61,9.3.3,4.36,5.12,6.71,10.47,8.16s11.91,1.29,13.56,2.83c1.66,1.54,2.94,5.01,4.9,5.82,1.96.81.6-3.72,2.79-4.28,2.19-.57,7.91,1.13,10.7.89,2.79-.24,4.22-.49,6.1,1.7,1.88,2.18,7.99,5.58,9.42,5.5,1.43-.08-2.49-3.56-1.28-5.74,1.21-2.18,4.22-1.78,8.74-1.86,4.52-.08,9.34-1.46,11.68.65s8.36,5.82,10.55,5.58c2.19-.24-.45-2.67-1.43-5.34-.98-2.67.3-3.39,2.56-3.31,2.26.08,5.65,3.31,9.12,4.85,3.47,1.54,6.33,3.8,8.82,3.07,2.49-.73-1.58-4.28-2.11-7.68-.53-3.4-1.21-6.95.53-11.32Zm-99.02,1.98c-.98,0-1.77-.85-1.77-1.9s.79-1.9,1.77-1.9,1.77.85,1.77,1.9-.79,1.9-1.77,1.9Z"/>
  <path class="uuid-d8956e8f-7417-4617-8647-7f66a69be5c4" d="m630.31,551.21c.3-4.38,3.48-10.25,0-7.89-3.48,2.36-4.83,5.86-7.04,5.78-2.22-.08-3.8-2.77-3.09-6.67.71-3.9,1.27-8.62,1.19-12.44-.07-3.45-.79-6.26-4.04-7.65-3.52-1.5-7.81-.89-12.34,4.31-4.75,5.45-12.19,7.73-13.77,8.95-1.58,1.22-2.06,5.37-3.09,6.67-1.03,1.3-3.05,1.26-3.8,3.82-.42,1.44,1.08,3.81,3.88,4.8,5.66,1.99,7.6,5.53,11.16,9.03,4.5,4.42,8.31,6.99,12.26,8.3,3.96,1.3,6.17.33,7.83-2.28s.71-9.11,1.35-11.31c.63-2.2,2.9-1.29,4.59,1.36,2.91,4.58,4.59,4.8,5.58,4.27.8-.43-1.11-2.62-.67-9.05Zm-35.67-9.54c-.98,0-1.77-.85-1.77-1.9s.79-1.9,1.77-1.9,1.77.85,1.77,1.9-.79,1.9-1.77,1.9Z"/>
  <path class="uuid-d8956e8f-7417-4617-8647-7f66a69be5c4" d="m614.71,443.58c-1.07-3.88-.96-7.46-.57-10.49.4-3.03,0-5.4-2.15-3.88-2.15,1.52-5.88,5.03-7.57,5.09-1.7.06-3.45-3.39-2.83-7.34.62-3.94-.4-6.97,1.58-9.22,1.98-2.24,3.5-2.67,3-4.18-.51-1.52-2.77-.85-6.61-.24-3.84.61-12.09,1.21-15.6,1.03-3.5-.18-9.61,0-14.3,2.55,0,0-7.12,3.4-10.85,5.7-3.73,2.3-6.9,6.43-8.59,8.97-1.7,2.55-5.43,7.28-6.1,9.34-.68,2.06.11,7.88,4.63,10.67s7.8,2.55,10.96,4.97c3.17,2.43,11.42,8.61,14.13,8.97,2.71.36.45-2.79-.57-5.46-1.02-2.67,0-3.88,5.09-1.82,5.09,2.06,15.37,4.12,19.33,3.15,3.96-.97,8.14-2.97,7.23-8-.9-5.03-1.87-9.4-.62-9.76,1.24-.36,3.28,1.58,5.54,4.06,2.26,2.49,3,3.76,4.41,3.09s1.53-3.33.45-7.21Zm-63.17-3.27c-.98,0-1.77-.85-1.77-1.9s.79-1.9,1.77-1.9,1.77.85,1.77,1.9-.79,1.9-1.77,1.9Z"/>
  <path class="uuid-4764c7ff-d0af-4d2e-bacf-360a223e5258" d="m567.29,398.96c-.6-2.75-1.13-7.03-.3-9.22.83-2.18.45-6.47-1.05-6.06-1.51.4-4.14,2.75-5.2,5.01-1.06,2.26-2.19,5.25-3.54,4.12s-1.21-5.42-2.26-8.57-7.91-7.03-13.49-7.19c-5.58-.16-13.72-.81-18.76,1.37,0,0-8.21,4.04-11.53,7.28s-3.39,10.43-3.84,12.61c-.45,2.18-3.84,3.15-3.47,4.36.38,1.21,4.9,3.64,7.61,5.34s8.82,3.31,11.08,4.85c2.26,1.54,6.18,3.4,8.21,3.31,2.03-.08-1.96-3.48.15-4.28,2.11-.81,3.47,1.05,7.39,1.29,3.92.24,6.48,1.13,11.53-1.29,5.05-2.43,5.5-7.76,6.03-10.19.53-2.43.75-3.88,3.39-1.62,2.64,2.26,6.33,4.93,7.61,4.93s1.05-3.31.45-6.06Zm-54.03-6.35c-.98,0-1.77-.85-1.77-1.9s.79-1.9,1.77-1.9,1.77.85,1.77,1.9-.79,1.9-1.77,1.9Z"/>
  <path class="uuid-d8956e8f-7417-4617-8647-7f66a69be5c4" d="m561.41,345.45c1.66-2.51,3.47-6.22-1.36-5.01-4.82,1.21-10.17,4.93-14.24,6.14-4.07,1.21-15.75-3.31-20.65-5.25-4.9-1.94-11.38-2.02-10.63-4.28.75-2.26,2.56-2.18,1.13-5.34s-4.37-7.68-7.61-5.58c-3.24,2.1-6.56,5.58-9.42,7.6-2.86,2.02-4.07,2.02-5.8,2.26,0,0-10.47,1.45-17.48,2.67-7.01,1.21-21.78,3.64-21.85,8.16s1.88,5.98,8.29,8.57,11.15,3.31,14.17,5.34c3.01,2.02,4.6,4.53,6.71,5.17,2.11.65,2.03-.24,2.64-2.83.6-2.59,2.26-2.1,6.78-1.78,4.52.32,9.57.24,12.96,2.1,3.39,1.86,6.71,4.61,8.74,4.93,2.03.32.15-1.54-.68-2.91s-2.19-4.12,1.51-4.12,14.39-1.21,18.61,1.13c4.22,2.34,6.56,5.17,8.74,5.98,2.19.81-.15-2.18-.98-4.45-.83-2.26-1.73-5.09,1.51-4.85s9.87,4.04,14.02,5.9c4.14,1.86,4.6,1.29,4.67-.24.08-1.54-3.39-6.47-2.86-10.51s1.43-6.31,3.09-8.81Zm-96.84,1.41c-.98,0-1.77-.85-1.77-1.9s.79-1.9,1.77-1.9,1.77.85,1.77,1.9-.79,1.9-1.77,1.9Z"/>
  <path class="uuid-03cf2ac9-7c40-4cef-af4f-f2a1a9f89b5d" d="m494.72,311.82c2.41-2.99,3.47-4.04,2.86-6.55-.6-2.51-3.01-3.56-8.29-1.37-5.27,2.18-12.06,3.72-15.75,2.43-3.69-1.29-4.75-3.96-1.73-4.77,3.01-.81,4.45-1.78,4.37-5.42-.08-3.64-3.77-6.31-8.29-7.6-4.52-1.29-8.21-2.18-12.21-5.42-3.99-3.23-9.8-5.17-15.6-4.04-5.8,1.13-7.54,3.56-11.53,5.34-3.99,1.78-9.42,1.7-11.83,3.72,0,0-4.52,3.31-5.35,5.09-.83,1.78-2.11,1.94-5.12,3.64-3.01,1.7-7.54,5.25-7.54,8.08s1.36,6.63,8.67,9.94c7.31,3.31,12.96,4.85,13.79,7.19.83,2.34,5.5,12.21,10.25,13.5,4.75,1.29,4.6-1.13,4.45-4.69-.15-3.56-2.03-7.76,3.47-5.82,5.5,1.94,11.68,7.6,21.63,6.71,9.95-.89,11.38-4.28,11.68-7.19.3-2.91-4.97-2.99-6.03-5.17-1.05-2.18.98-3.31,4.6-2.59,3.62.73,10.25,4.53,13.64,7.28,3.39,2.75,5.73,4.93,7.84,3.15,2.11-1.78,2.71-5.42,1.36-8.65-1.36-3.23-1.73-3.8.68-6.79Zm-87.42-6.51c-.98,0-1.77-.85-1.77-1.9s.79-1.9,1.77-1.9,1.77.85,1.77,1.9-.79,1.9-1.77,1.9Z"/>
  <path class="uuid-d8956e8f-7417-4617-8647-7f66a69be5c4" d="m545.21,268.65c-2.79.32-11.38,1.7-14.32,1.54-2.94-.16-7.23,1.05-7.99-2.34-.75-3.4-1.73-3.96,2.03-4.2,3.77-.24,6.48-2.67,6.18-5.66-.3-2.99-1.58-5.66-1.21-7.76s-.53-3.56-3.62-2.51-14.85,4.28-20.42,4.53c-5.58.24-15.83,1.45-18.31,3.15-2.49,1.7-2.11,4.28-3.47,4.93-1.36.65-3.39-.57-5.2.4,0,0-6.1,2.34-9.65,4.28-3.54,1.94-5.12,3.96-5.05,6.14.08,2.18,3.62,4.93,6.33,6.47,2.71,1.54,5.35,3.31,8.89,5.25,3.54,1.94,9.04,5.98,11.45,8.33,2.41,2.34,6.63,4.61,7.69,4.2,1.05-.4-3.32-3.4-4.97-6.06-1.66-2.67-1.88-4.85,1.96-4.28,3.84.57,7.54-.57,9.57,2.67,2.03,3.23,5.95,7.28,10.7,8.81,4.75,1.54,14.24,3.72,14.77,1.21.53-2.51-2.03-2.18-3.54-6.39-1.51-4.2-6.63-9.7-5.05-11.24,1.58-1.54,1.96-1.62,7.76-.65,5.8.97,11.61,2.51,14.92,4.04,3.32,1.54,3.32-.08,3.01-3.96-.3-3.88,0-4.85.45-7.19.45-2.34-.15-4.04-2.94-3.72Zm-74,2.87c-.98,0-1.77-.85-1.77-1.9s.79-1.9,1.77-1.9,1.77.85,1.77,1.9-.79,1.9-1.77,1.9Z"/>
  <path class="uuid-4764c7ff-d0af-4d2e-bacf-360a223e5258" d="m606.17,305.6c.53-1.94.08-6.3-2.86-4.77-2.94,1.54-5.35,4.85-7.39,4.61-2.03-.24-.83-1.29-.75-5.82.08-4.53-.3-7.36,1.36-9.38,1.66-2.02,3.99-4.45,2.41-5.09-1.58-.65-15.9-.57-22.91-.24-7.01.32-14.92,1.37-22.53,5.42,0,0-8.36,4.45-9.95,7.11s-.45,5.17-2.26,7.36-7.38,6.39-6.93,9.05c.45,2.67,3.92,6.87,6.33,8.81,2.41,1.94,11.38,8.49,14.39,8.81,3.01.32,5.05,1.21,6.63,2.75,1.58,1.54,1.66,1.94,2.64,1.94s-2.11-4.85.98-5.74c3.09-.89,7.46,1.7,11.98,1.94s11.45,1.21,15.37-1.86c3.92-3.07,4.45-8,4.3-10.75-.15-2.75-1.81-6.79,1.81-3.23s4.97,4.93,6.41,3.72c1.43-1.21,1.05-3.48,1.05-6.63s-.6-6.06-.08-8Zm-62.92,5.05c-.98,0-1.77-.85-1.77-1.9s.79-1.9,1.77-1.9,1.77.85,1.77,1.9-.79,1.9-1.77,1.9Z"/>
  <path class="uuid-4d37fded-c862-4d1c-a039-01027b87ddce" d="m647.77,257.46c1.58-4,4.18-11.4-1.24-8.12-5.43,3.27-12.21,7.28-15.37,7.52-3.17.24-9.95-1.82-15.15-4-5.2-2.18-12.77-2.06-13.23-4.73-.45-2.67,2.37-2.91.23-6.31-2.15-3.39-3.96-8.24-8.36-6.3-4.41,1.94-6.33,5.34-8.36,7.52-2.03,2.18-3.17,3.76-7.57,4.12,0,0-20.69,1.82-27.35,2.79-6.67.97-10.85,5.09-10.74,7.52.11,2.43,4.86,5.46,10.17,7.15s14.47,2.91,16.62,4.85c2.15,1.94,2.6,3.76,3.84,2.67,1.24-1.09,5.43-1.33,9.38-.97,3.96.36,7.57.36,10.51,3.27,2.94,2.91,6.22,5.21,7.57,4.97,1.36-.24-2.6-5.82-.11-7.03,2.49-1.21,3.5-.24,8.7-.85,5.2-.61,9.5-1.58,13.45.49,3.96,2.06,6.78,4.61,8.25,4.24,1.47-.36-3.84-8.12-1.58-9.09,2.26-.97,4.18-.73,8.25,1.7,4.07,2.42,8.25,7.88,11.76,8.37,3.5.49,1.81-4.73.45-8.49-1.36-3.76-1.7-7.27-.11-11.28Zm-99.7.16c-.98,0-1.77-.85-1.77-1.9s.79-1.9,1.77-1.9,1.77.85,1.77,1.9-.79,1.9-1.77,1.9Z"/>
</svg>